<svg width="55" height="69" viewBox="0 0 55 69" fill="none" xmlns="http://www.w3.org/2000/svg">
<g filter="url(#filter0_d_938_100)">
<path fill-rule="evenodd" clip-rule="evenodd" d="M13.5221 33.7851L9.976 42.664C9.592 43.56 9.18667 44.328 8.76 44.968C8.376 45.5653 7.90667 46.056 7.352 46.44C6.84 46.824 6.22133 47.1227 5.496 47.336C4.81333 47.5493 3.98133 47.72 3 47.848V50.28H18.552V47.848C16.76 47.848 15.48 47.6347 14.712 47.208C13.944 46.7387 13.56 45.9067 13.56 44.712C13.56 44.2853 13.624 43.7307 13.752 43.048C13.88 42.3653 14.0933 41.5333 14.392 40.552C14.6465 39.8204 14.9484 38.994 15.2977 38.0727L27.128 66.6397H29.368L36.0752 50.28H53.624V47.784C52.5147 47.784 51.5547 47.6773 50.744 47.464C49.976 47.2507 49.2507 46.7813 48.568 46.056C47.8853 45.3307 47.1813 44.264 46.456 42.856C45.7307 41.4053 44.8773 39.4853 43.896 37.096L42.6994 34.1229L46.712 24.3357C47.096 23.4397 47.48 22.6931 47.864 22.0957C48.2907 21.4557 48.76 20.9437 49.272 20.5597C49.8267 20.1757 50.4453 19.8771 51.128 19.6637C51.8533 19.4504 52.7067 19.2797 53.688 19.1517V16.7197H38.136V19.1517C40.056 19.1517 41.3573 19.3864 42.04 19.8557C42.7653 20.3251 43.128 21.1357 43.128 22.2877C43.128 23.0131 43 23.8237 42.744 24.7197C42.488 25.6157 42.04 26.8531 41.4 28.4317L40.9025 29.6585L29.368 1H26.616L20.3378 16.7197H2.168V19.2157C3.27733 19.3011 4.23733 19.4931 5.048 19.7917C5.85867 20.0904 6.584 20.5384 7.224 21.1357C7.864 21.7331 8.44 22.5011 8.952 23.4397C9.50667 24.3784 10.0613 25.4877 10.616 26.7677L13.5221 33.7851ZM20.7282 32.424H34.616L37.1133 39.0023L33.5559 47.7745C33.3011 47.7808 33.0358 47.784 32.76 47.784V49.7372L30.136 56.2077L20.7282 32.424ZM19.4624 29.224L19.1357 28.3979L22.777 19.2167C22.8609 19.2161 22.9459 19.2157 23.032 19.2157V18.5737L26.296 10.344L33.4 29.224H19.4624ZM19.1973 19.5754L17.4872 23.857C17.3011 23.1128 17.208 22.4617 17.208 21.9037C17.208 21.4771 17.2933 21.0931 17.464 20.7517C17.6347 20.4104 17.9333 20.1331 18.36 19.9197C18.5941 19.7793 18.8732 19.6645 19.1973 19.5754ZM38.6594 43.9769L37.3436 47.1863C37.3739 47.1724 37.4033 47.1583 37.432 47.144C38.2853 46.7173 38.712 46.0133 38.712 45.032C38.712 44.6452 38.6945 44.2936 38.6594 43.9769Z" fill="#96AFC3"/>
<path d="M7.352 46.44C7.90667 46.056 8.376 45.5653 8.76 44.968C9.18667 44.328 9.592 43.56 9.976 42.664L9.88409 42.6246M7.352 46.44L9.88409 42.6246M7.352 46.44C6.84 46.824 6.22133 47.1227 5.496 47.336L7.352 46.44ZM9.88409 42.6246L13.4141 33.7858L10.5242 26.8075C10.5241 26.8072 10.524 26.807 10.5239 26.8067C9.97059 25.5299 9.41786 24.4247 8.86591 23.4906L8.86416 23.4876L8.86421 23.4876C8.35624 22.5563 7.78643 21.7975 7.15577 21.2088C6.52536 20.6205 5.81144 20.1796 5.01343 19.8856C4.21349 19.5908 3.26296 19.4003 2.16033 19.3154C2.10823 19.3114 2.068 19.268 2.068 19.2157V16.7197C2.068 16.6645 2.11277 16.6197 2.168 16.6197H20.27L26.5231 0.96291C26.5383 0.924918 26.5751 0.9 26.616 0.9H29.368C29.4088 0.9 29.4455 0.924802 29.4608 0.962663L40.9029 29.3915L41.3073 28.3942C41.9469 26.8166 42.3933 25.5831 42.6479 24.6923C42.902 23.8028 43.028 23.0016 43.028 22.2877C43.028 21.157 42.6734 20.3847 41.9857 19.9397L41.9833 19.9382L41.9833 19.9381C41.6586 19.7149 41.1783 19.5423 40.5343 19.4261C39.8914 19.3102 39.0925 19.2517 38.136 19.2517C38.0808 19.2517 38.036 19.207 38.036 19.1517V16.7197C38.036 16.6645 38.0808 16.6197 38.136 16.6197H53.688C53.7432 16.6197 53.788 16.6645 53.788 16.7197V19.1517C53.788 19.202 53.7507 19.2444 53.7009 19.2509C52.7237 19.3784 51.8759 19.548 51.157 19.7594C50.4844 19.9697 49.8758 20.2636 49.3305 20.6408C48.8299 21.0166 48.3687 21.5191 47.9476 22.1505C47.5678 22.7416 47.1865 23.4825 46.8042 24.3745C46.8041 24.3747 46.804 24.3749 46.8039 24.3751L42.8073 34.1233L43.9885 37.058C43.9886 37.0582 43.9887 37.0584 43.9887 37.0586C44.9694 39.4462 45.8215 41.3633 46.5452 42.8107C47.2683 44.2144 47.9673 45.2718 48.6408 45.9875C49.3139 46.7026 50.0239 47.1601 50.7702 47.3675C51.5702 47.5779 52.521 47.684 53.624 47.684C53.6792 47.684 53.724 47.7288 53.724 47.784V50.28C53.724 50.3352 53.6792 50.38 53.624 50.38H36.1423L29.4605 66.6777C29.4451 66.7152 29.4086 66.7397 29.368 66.7397H27.128C27.0876 66.7397 27.0511 66.7154 27.0356 66.678L15.3019 38.3443C14.9907 39.1697 14.7191 39.916 14.4871 40.583C14.1893 41.5615 13.9773 42.3891 13.8503 43.0664C13.7228 43.7463 13.66 44.2941 13.66 44.712C13.66 45.8837 14.0348 46.676 14.7623 47.1216C15.5069 47.5344 16.7642 47.748 18.552 47.748C18.6072 47.748 18.652 47.7928 18.652 47.848V50.28C18.652 50.3352 18.6072 50.38 18.552 50.38H3C2.94477 50.38 2.9 50.3352 2.9 50.28V47.848C2.9 47.7978 2.93726 47.7553 2.98707 47.7488C3.96467 47.6213 4.79066 47.4517 5.46617 47.2406L5.46778 47.2401C6.18369 47.0295 6.79112 46.7357 7.292 46.36L7.29504 46.3577L7.29508 46.3578C7.83835 45.9817 8.29862 45.5008 8.67588 44.9139L8.67678 44.9125C9.09913 44.279 9.50154 43.5171 9.88359 42.6258C9.88375 42.6254 9.88392 42.625 9.88409 42.6246ZM32.76 47.684C32.7048 47.684 32.66 47.7288 32.66 47.784V49.7177L30.1372 55.9388L20.8753 32.524H34.547L37.0059 39.0011L33.4879 47.6761C33.2541 47.6814 33.0115 47.684 32.76 47.684ZM23.032 19.3157C23.0872 19.3157 23.132 19.271 23.132 19.2157V18.5929L26.2935 10.6214L33.2555 29.124H19.5304L19.2432 28.3979L22.8451 19.3163C22.9068 19.3159 22.9691 19.3157 23.032 19.3157ZM18.4114 20.0055C18.5884 19.8993 18.7935 19.8076 19.0275 19.7308L17.5117 23.5262C17.3755 22.9146 17.308 22.374 17.308 21.9037C17.308 21.4907 17.3905 21.1223 17.5534 20.7964C17.7122 20.4789 17.9925 20.2153 18.4047 20.0092L18.4049 20.0094L18.4114 20.0055ZM38.3065 46.2442C38.1301 46.5353 37.8755 46.7786 37.5392 46.9729L38.5944 44.3991C38.6061 44.598 38.612 44.8089 38.612 45.032C38.612 45.5079 38.5087 45.9106 38.3065 46.2442Z" stroke="#1B2433" stroke-width="0.2" stroke-linejoin="round"/>
</g>
<defs>
<filter id="filter0_d_938_100" x="0.967987" y="0.799805" width="53.92" height="68.04" filterUnits="userSpaceOnUse" color-interpolation-filters="sRGB">
<feFlood flood-opacity="0" result="BackgroundImageFix"/>
<feColorMatrix in="SourceAlpha" type="matrix" values="0 0 0 0 0 0 0 0 0 0 0 0 0 0 0 0 0 0 127 0" result="hardAlpha"/>
<feOffset dy="1"/>
<feGaussianBlur stdDeviation="0.5"/>
<feComposite in2="hardAlpha" operator="out"/>
<feColorMatrix type="matrix" values="0 0 0 0 0.105882 0 0 0 0 0.141176 0 0 0 0 0.2 0 0 0 0.25 0"/>
<feBlend mode="normal" in2="BackgroundImageFix" result="effect1_dropShadow_938_100"/>
<feBlend mode="normal" in="SourceGraphic" in2="effect1_dropShadow_938_100" result="shape"/>
</filter>
</defs>
</svg>
